# This file uses centimeters as units for non-parametric coordinates.

mtllib Cone.mtl
g default
v -0.173141 0.000513 -0.000001
v 0.173140 0.000513 -0.000001
v -0.173141 0.020152 -0.000001
v 0.173140 0.020152 -0.000001
v 0.086369 0.020152 -0.088462
v -0.094914 0.020152 -0.084098
v -0.126803 0.020152 -0.000001
v -0.094914 0.020152 0.084096
v 0.094913 0.020152 0.084096
v 0.126802 0.020152 -0.000001
v 0.012490 0.419085 -0.012229
v -0.013726 0.419085 -0.011721
v -0.018338 0.419085 -0.000001
v -0.013726 0.419085 0.011720
v 0.013725 0.419085 0.011720
v 0.018337 0.419085 -0.000001
v -0.082019 0.084967 0.069736
v -0.109577 0.084967 -0.000001
v -0.082019 0.084967 -0.069738
v 0.074635 0.084967 -0.073838
v 0.109576 0.084967 -0.000001
v 0.082018 0.084967 0.069736
v -0.002437 0.000513 -0.178575
v -0.002437 0.020152 -0.178575
v -0.002437 0.020152 -0.133835
v -0.002106 0.084967 -0.116455
v -0.000353 0.419085 -0.017510
v 0.000195 0.000513 0.178573
v 0.000195 0.020152 0.178573
v 0.000118 0.020152 0.133834
v 0.000102 0.084967 0.116453
v 0.000017 0.419085 0.017509
v -0.173139 0.000513 0.178572
v -0.173139 0.020152 0.178572
v -0.173139 0.000513 -0.178573
v -0.173139 0.020152 -0.178573
v 0.173138 0.000513 -0.178573
v 0.173138 0.020152 -0.178573
v 0.173138 0.000513 0.178572
v 0.173138 0.020152 0.178572
v 0.130717 0.020152 0.113497
v 0.126691 0.020152 -0.124877
v -0.131581 0.020152 -0.113915
v -0.130225 0.020152 0.113320
v 0.084851 0.175678 -0.000001
v 0.063512 0.175678 0.053380
v 0.000079 0.175678 0.088015
v -0.063513 0.175678 0.053380
v -0.084852 0.175678 -0.000001
v -0.063513 0.175678 -0.053382
v -0.001631 0.175678 -0.088017
v 0.057795 0.175678 -0.056421
v 0.056672 0.278798 -0.000001
v 0.042419 0.278798 0.035731
v 0.000052 0.278798 0.058145
v -0.042420 0.278798 0.035731
v -0.056673 0.278798 -0.000001
v -0.042420 0.278798 -0.035732
v -0.001089 0.278798 -0.058147
v 0.038601 0.278798 -0.037699
v 0.069546 0.231684 -0.000001
v 0.052056 0.231684 0.043795
v 0.000065 0.231684 0.071793
v -0.052057 0.231684 0.043795
v -0.069547 0.231684 -0.000001
v -0.052057 0.231684 -0.043796
v -0.001337 0.231684 -0.071795
v 0.047371 0.231684 -0.046253
v -0.001164 0.000513 -0.005905
vt 0.887222 0.867714
vt 0.683973 0.860854
vt 0.649123 0.766199
vt 0.685797 0.672236
vt 0.898675 0.674294
vt 0.933525 0.768949
vt 0.009148 0.601122
vt 0.033874 0.511165
vt 0.037602 0.526086
vt 0.038379 0.541443
vt 0.029097 0.576387
vt 0.020800 0.589344
vt 0.038462 0.069223
vt 0.013314 0.068610
vt 0.008946 0.057344
vt 0.013426 0.046122
vt 0.039762 0.046253
vt 0.044130 0.057520
vt 0.461472 0.554964
vt 0.456480 0.463516
vt 0.434369 0.374649
vt 0.282023 0.922303
vt 0.352558 0.851718
vt 0.402635 0.774999
vt 0.787141 0.917634
vt 0.388500 0.271588
vt 0.026253 0.495080
vt 0.026116 0.074228
vt 0.792908 0.617490
vt 0.447388 0.669198
vt 0.035666 0.559443
vt 0.026638 0.040634
vt 0.599097 0.565440
vt 0.578724 0.496876
vt 0.793480 0.567318
vt 0.692541 0.313866
vt 0.595224 0.965954
vt 0.578724 0.250858
vt 0.597159 0.765697
vt 0.983551 0.969709
vt 0.578724 0.981427
vt 0.786655 0.967806
vt 0.946609 0.313866
vt 0.987424 0.569195
vt 0.578724 0.735408
vt 0.985489 0.769452
vt 0.939145 0.641712
vt 0.932045 0.908988
vt 0.642530 0.893895
vt 0.646514 0.639081
vt 0.262848 0.779986
vt 0.301031 0.720894
vt 0.335198 0.639114
vt 0.346385 0.550996
vt 0.342747 0.480665
vt 0.325598 0.412371
vt 0.290049 0.333053
vt 0.208765 0.834119
vt 0.160510 0.698998
vt 0.185884 0.659400
vt 0.208251 0.605227
vt 0.215808 0.546994
vt 0.213460 0.500016
vt 0.201984 0.454399
vt 0.178419 0.401971
vt 0.124503 0.735279
vt 0.207315 0.735937
vt 0.238509 0.687425
vt 0.266260 0.620686
vt 0.275454 0.548842
vt 0.272543 0.491195
vt 0.258454 0.435228
vt 0.229452 0.370556
vt 0.163050 0.780379
vt 0.565196 0.250858
vt 0.818122 0.436238
vt 0.565196 0.373867
vt 0.565196 0.496876
vt 0.565196 0.735408
vt 0.578724 0.858418
vt 0.565196 0.858418
vt 0.565196 0.012325
vt 0.476992 0.811460
vt 0.416500 0.902958
vt 0.526467 0.690413
vt 0.544106 0.560623
vt 0.537497 0.451288
vt 0.511638 0.344809
vt 0.457913 0.228218
vt 0.332787 0.987286
vt 0.186732 0.318589
vt 0.143935 0.359651
vt 0.237435 0.269603
vt 0.319708 0.189683
vt 0.380571 0.133767
vt 0.015826 0.481688
vt 0.565196 0.133270
vt 0.565196 0.616277
vt 0.578724 0.012325
vt 0.565196 0.981427
vt 0.818122 0.313866
vt 0.818122 0.189901
vt 0.692541 0.189901
vt 0.578724 0.133270
vt 0.692541 0.436238
vt 0.578724 0.373867
vt 0.946609 0.436238
vt 0.578724 0.616277
vt 0.946609 0.189901
vn 0.000007 0.000000 -1.000000
vn 0.000007 0.000000 -1.000000
vn 0.000000 0.000000 -1.000000
vn 0.000000 0.000000 -1.000000
vn -1.000000 0.000000 -0.000007
vn -1.000000 0.000000 -0.000007
vn -1.000000 -0.000000 0.000000
vn -1.000000 -0.000000 0.000000
vn -1.000000 -0.000000 0.000007
vn -1.000000 -0.000000 0.000007
vn -0.000007 0.000000 1.000000
vn -0.000007 0.000000 1.000000
vn -0.000000 0.000000 1.000000
vn -0.000000 0.000000 1.000000
vn 1.000000 0.000000 0.000007
vn 1.000000 0.000000 0.000007
vn 1.000000 0.000000 0.000000
vn 1.000000 0.000000 0.000000
vn 1.000000 0.000000 -0.000007
vn 1.000000 0.000000 -0.000007
vn 0.000000 1.000000 0.000005
vn 0.000000 1.000000 -0.000000
vn 0.000000 1.000000 0.000001
vn -0.024268 0.288238 -0.957251
vn 0.696096 0.260156 -0.669156
vn 0.690509 0.259644 -0.675117
vn -0.024705 0.285393 -0.958092
vn -0.964295 0.264830 0.000000
vn -0.708131 0.266500 -0.653856
vn -0.701982 0.266629 -0.660401
vn -0.964163 0.265309 0.000000
vn -0.701491 0.266519 0.660968
vn -0.695417 0.266631 0.667310
vn -0.000000 0.288628 0.957441
vn 0.000034 0.286536 0.958070
vn 0.963053 0.264820 -0.048978
vn 0.702104 0.266519 0.660316
vn 0.696024 0.266632 0.666677
vn 0.963049 0.265313 -0.046323
vn -0.023685 0.274745 -0.961226
vn 0.688628 0.253317 -0.679427
vn 0.692827 0.258416 -0.673210
vn -0.024226 0.286498 -0.957775
vn -0.964676 0.263438 0.000000
vn -0.700214 0.259209 -0.665215
vn -0.704106 0.264168 -0.659128
vn -0.964502 0.264077 0.000000
vn -0.693407 0.259074 0.672360
vn -0.697319 0.264138 0.666316
vn -0.000006 0.274548 0.961574
vn -0.000008 0.286166 0.958180
vn 0.963426 0.263165 -0.050534
vn 0.694036 0.259087 0.671706
vn 0.697946 0.264142 0.665658
vn 0.963197 0.263986 -0.050621
vn -0.000007 0.000000 -1.000000
vn -0.000007 0.000000 -1.000000
vn 0.000007 0.000000 1.000000
vn 0.000007 0.000000 1.000000
vn 0.000000 1.000000 0.000000
vn 0.000000 1.000000 0.000000
vn 0.000000 1.000000 0.000000
vn 0.000000 1.000000 0.000000
vn 0.000000 1.000000 0.000000
vn 0.000000 1.000000 0.000000
vn 0.000000 1.000000 0.000000
vn 0.000000 1.000000 0.000000
vn 0.000000 1.000000 0.000000
vn 0.000000 1.000000 0.000000
vn 0.000000 1.000000 0.000000
vn 0.000000 1.000000 0.000000
vn 0.000000 1.000000 0.000000
vn 0.000000 1.000000 0.000000
vn 0.000000 1.000000 0.000000
vn 0.000000 1.000000 0.000000
vn 0.000000 1.000000 0.000000
vn 0.000000 1.000000 0.000000
vn 0.000000 1.000000 0.000000
vn 0.000000 1.000000 0.000000
vn 0.000000 1.000000 -0.000000
vn 0.000000 1.000000 -0.000000
vn 0.000000 1.000000 -0.000000
vn 0.000000 1.000000 -0.000000
vn 0.000000 1.000000 0.000000
vn 0.000000 1.000000 0.000000
vn 0.000000 1.000000 0.000000
vn 0.000000 1.000000 0.000000
vn 0.000000 1.000000 0.000000
vn 0.000000 1.000000 0.000000
vn 0.000000 1.000000 0.000000
vn 0.000000 1.000000 0.000000
vn 0.000000 1.000000 0.000000
vn 0.000000 1.000000 0.000000
vn 0.000000 1.000000 0.000000
vn 0.000000 1.000000 0.000000
vn 0.000000 1.000000 0.000000
vn 0.000000 1.000000 0.000000
vn 0.000000 1.000000 0.000000
vn 0.000000 1.000000 0.000000
vn 0.000000 1.000000 -0.000000
vn 0.000000 1.000000 -0.000000
vn 0.000000 1.000000 -0.000000
vn 0.000000 1.000000 -0.000000
vn 0.000000 1.000000 -0.000000
vn 0.000000 1.000000 -0.000000
vn 0.000000 1.000000 -0.000000
vn 0.000000 1.000000 -0.000000
vn 0.963370 0.263054 -0.052172
vn 0.683117 0.260677 0.682202
vn 0.689104 0.260188 0.676342
vn 0.963496 0.263120 -0.049424
vn -0.000032 0.271221 0.962517
vn 0.000007 0.272365 0.962194
vn -0.682463 0.260662 0.682862
vn -0.688481 0.260175 0.676981
vn -0.964716 0.263291 0.000000
vn -0.964703 0.263340 0.000000
vn -0.689548 0.260808 -0.675650
vn -0.695229 0.260306 -0.669998
vn -0.021545 0.271566 -0.962179
vn -0.022903 0.272658 -0.961838
vn 0.678809 0.254829 -0.688680
vn 0.682971 0.254326 -0.684740
vn 0.000000 1.000000 0.000000
vn 0.000000 1.000000 -0.000001
vn 0.000000 1.000000 0.000000
vn 0.000000 1.000000 0.000000
vn 0.000000 1.000000 0.000000
vn 0.000000 -1.000000 -0.000000
vn 0.000000 -1.000000 -0.000000
vn 0.000000 -1.000000 0.000000
vn 0.000000 -1.000000 0.000000
vn 0.000000 -1.000000 0.000000
vn 0.000000 -1.000000 0.000000
vn 0.000000 -1.000000 -0.000000
vn 0.000000 -1.000000 -0.000000
vn 0.000000 -1.000000 -0.000000
vn 0.000000 -1.000000 -0.000000
vn 0.000000 -1.000000 0.000000
vn 0.000000 -1.000000 0.000000
vn 0.000000 -1.000000 0.000000
vn 0.000000 -1.000000 0.000000
s 1
g pCylinder2
usemtl lambert4SG
f 38/82/1 37/99/2 23/104/3 24/97/4
s 2
f 36/75/5 35/38/6 1/106/7 3/77/8
f 1/106/7 33/34/9 34/78/10 3/77/8
s 3
f 34/78/11 33/34/12 28/108/13 29/98/14
s 4
f 40/79/15 39/45/16 2/80/17 4/81/18
f 2/80/17 37/41/19 38/100/20 4/81/18
s 5
f 15/17/21 11/13/22 32/32/23
s 6
f 26/26/24 20/94/25 5/95/26 25/89/27
f 18/20/28 19/21/29 6/88/30 7/87/31
f 17/19/32 18/20/28 7/87/31 8/86/33
f 31/30/34 17/19/32 8/86/33 30/85/35
f 21/23/36 22/24/37 9/83/38 10/84/39
f 20/22/25 21/23/36 10/84/39 5/90/26
f 67/73/40 68/91/41 52/93/42 51/57/43
f 65/71/44 66/72/45 50/56/46 49/55/47
f 64/70/48 65/71/44 49/55/47 48/54/49
f 63/69/50 64/70/48 48/54/49 47/53/51
f 61/67/52 62/68/53 46/52/54 45/51/55
f 68/74/41 61/67/52 45/51/55 52/58/42
f 48/54/49 17/19/32 31/30/34 47/53/51
f 49/55/47 18/20/28 17/19/32 48/54/49
f 50/56/46 19/21/29 18/20/28 49/55/47
f 52/93/42 20/94/25 26/26/24 51/57/43
f 52/58/42 45/51/55 21/23/36 20/22/25
f 46/52/54 22/24/37 21/23/36 45/51/55
s 1
f 23/104/3 35/38/56 36/75/57 24/97/4
s 6
f 19/21/29 26/26/24 25/89/27 6/88/30
f 26/26/24 19/21/29 50/56/46 51/57/43
f 66/72/45 67/73/40 51/57/43 50/56/46
s 3
f 28/108/13 39/45/58 40/79/59 29/98/14
s 6
f 22/24/37 31/30/34 30/85/35 9/83/38
f 31/30/34 22/24/37 46/52/54 47/53/51
f 62/68/53 63/69/50 47/53/51 46/52/54
s 12
f 42/48/60 38/40/61 24/42/62
s 13
f 41/47/63 40/44/64 4/46/65
s 14
f 44/50/66 34/33/67 29/35/68
s 15
f 43/49/69 36/37/70 3/39/71
s 13
f 29/35/72 40/44/64 41/47/63
s 12
f 4/46/73 38/40/61 42/48/60
s 15
f 24/42/74 36/37/70 43/49/69
s 14
f 3/39/75 34/33/67 44/50/66
s off
f 30/29/76 8/4/77 44/50/78 29/35/79
f 8/4/80 7/3/81 3/39/82 44/50/83
f 7/3/84 6/2/85 43/49/86 3/39/87
f 6/2/88 25/25/89 24/42/90 43/49/91
f 10/6/92 9/5/93 41/47/94 4/46/95
f 9/5/96 30/29/97 29/35/98 41/47/99
f 5/1/100 10/6/101 4/46/102 42/48/103
f 25/25/104 5/1/105 42/48/106 24/42/107
s 6
f 16/12/108 15/11/109 54/60/110 53/59/111
f 15/11/109 32/31/112 55/61/113 54/60/110
f 32/31/112 14/10/114 56/62/115 55/61/113
f 14/10/114 13/9/116 57/63/117 56/62/115
f 13/9/116 12/8/118 58/64/119 57/63/117
f 12/8/118 27/27/120 59/65/121 58/64/119
f 27/27/120 11/96/122 60/92/123 59/65/121
f 11/7/122 16/12/108 53/59/111 60/66/123
f 53/59/111 54/60/110 62/68/53 61/67/52
f 54/60/110 55/61/113 63/69/50 62/68/53
f 55/61/113 56/62/115 64/70/48 63/69/50
f 56/62/115 57/63/117 65/71/44 64/70/48
f 57/63/117 58/64/119 66/72/45 65/71/44
f 58/64/119 59/65/121 67/73/40 66/72/45
f 59/65/121 60/92/123 68/91/41 67/73/40
f 60/66/123 53/59/111 61/67/52 68/74/41
s 5
f 16/18/124 11/13/22 15/17/21
f 32/32/23 27/28/125 14/16/126
f 32/32/23 11/13/22 27/28/125
f 14/16/126 12/14/127 13/15/128
f 14/16/126 27/28/125 12/14/127
s 17
f 39/109/129 28/43/130 69/101/131 2/102/132
f 2/102/132 69/101/131 23/36/133 37/103/134
s off
f 1/76/135 35/105/136 23/36/137 69/101/138
f 33/107/139 1/76/140 69/101/141 28/43/142
