# This file uses centimeters as units for non-parametric coordinates.

mtllib Walls.mtl
g default
v 2.999999 0.000000 3.000000
v 3.000000 1.400000 3.000000
v 3.000000 0.000000 0.000000
v 3.000000 1.400000 0.000000
v 2.000000 0.000000 0.000000
v 2.000000 1.400000 0.000000
v -3.000000 0.000000 0.000000
v -2.000000 0.000000 0.000000
v -3.000000 1.400000 -0.000000
v -2.000000 1.400000 -0.000000
v -3.000000 0.000000 3.000000
v -3.000000 1.400000 3.000000
vt 0.995789 0.393864
vt 0.259697 0.737373
vt 0.259697 0.393864
vt 0.014333 0.737373
vt 0.014333 0.393864
vt 0.013281 0.015714
vt 0.258644 0.015714
vt 0.258644 0.359223
vt 0.013281 0.359223
vt 0.994736 0.015714
vt 0.994736 0.359223
vt 0.995789 0.737373
vn -1.000000 0.000000 -0.000000
vn -1.000000 0.000000 -0.000000
vn -1.000000 0.000000 -0.000000
vn -1.000000 0.000000 -0.000000
vn -0.000000 0.000000 1.000000
vn -0.000000 0.000000 1.000000
vn -0.000000 0.000000 1.000000
vn -0.000000 0.000000 1.000000
vn 0.000000 0.000000 1.000000
vn 0.000000 0.000000 1.000000
vn 0.000000 0.000000 1.000000
vn 0.000000 0.000000 1.000000
vn 1.000000 0.000000 0.000000
vn 1.000000 0.000000 0.000000
vn 1.000000 0.000000 0.000000
vn 1.000000 0.000000 0.000000
s off
g left_right_uno
usemtl lambert17SG
f 1/1/1 2/12/2 4/2/3 3/3/4
f 3/3/5 4/2/6 6/4/7 5/5/8
f 10/6/9 9/7/10 7/8/11 8/9/12
f 7/8/13 9/7/14 12/10/15 11/11/16
